<?xml version="1.0" standalone="no"?>
<!DOCTYPE svg PUBLIC "-//W3C//DTD SVG 20010904//EN"
 "http://www.w3.org/TR/2001/REC-SVG-20010904/DTD/svg10.dtd">
<svg version="1.0" xmlns="http://www.w3.org/2000/svg"
 width="700.000000pt" height="700.000000pt" viewBox="0 0 700.000000 700.000000"
 preserveAspectRatio="xMidYMid meet">
<metadata>
Created by potrace 1.11, written by Peter Selinger 2001-2013
</metadata>
<g transform="translate(0.000000,700.000000) scale(0.100000,-0.100000)"
fill="#000000" stroke="none">
<path d="M2636 5503 c-12 -12 -6 -104 7 -108 6 -2 41 -6 77 -10 245 -22 308
-88 320 -340 2 -39 3 -743 3 -1565 0 -1344 -2 -1502 -16 -1569 -19 -85 -53
-141 -105 -172 -42 -24 -140 -47 -228 -52 l-59 -4 -3 -56 -3 -57 188 7 c166 6
1141 6 1423 0 l104 -2 1 53 c0 28 -2 53 -5 53 -8 2 -41 6 -113 13 -187 19
-254 76 -283 241 -19 107 -18 3109 1 3216 33 182 90 229 295 237 304 12 498
-89 611 -318 31 -62 67 -167 75 -220 3 -19 7 -37 9 -40 3 -6 14 -89 21 -160 5
-54 5 -299 0 -356 -22 -249 -89 -426 -206 -544 -131 -132 -275 -186 -525 -197
-66 -3 -122 -7 -125 -10 -6 -6 -7 -103 0 -104 3 -1 62 -3 132 -4 70 -1 140 -6
155 -10 15 -3 29 -6 31 -6 1 1 25 -10 53 -25 155 -78 246 -268 323 -674 3 -14
19 -99 36 -190 37 -201 39 -209 45 -240 2 -13 7 -42 10 -65 11 -75 46 -236 61
-283 103 -314 332 -453 736 -447 145 2 240 17 343 55 51 18 136 59 145 70 3 3
23 17 45 31 53 35 175 148 175 162 0 7 -16 25 -35 40 l-35 28 -43 -40 c-130
-126 -287 -109 -362 39 -22 43 -62 167 -72 220 -2 14 -10 50 -18 80 -8 30 -16
67 -19 83 -3 15 -7 35 -10 45 -3 9 -7 28 -10 42 -3 19 -62 281 -81 360 -2 8
-8 37 -14 64 -7 26 -25 83 -42 126 -122 317 -398 484 -909 547 -67 8 -69 9
-74 14 -3 3 9 6 27 7 54 4 158 23 257 47 143 35 307 95 380 140 19 12 42 24
50 27 29 11 173 120 227 171 75 72 125 139 171 232 40 81 78 191 88 255 3 19
9 53 13 75 12 65 4 234 -14 320 -52 249 -230 457 -498 584 -119 56 -323 118
-442 135 -22 3 -49 7 -60 10 -11 2 -47 7 -80 11 -33 4 -76 10 -95 12 -19 3
-460 6 -980 8 -520 1 -973 5 -1007 8 -34 3 -64 3 -67 0z"/>
<path d="M1311 5388 c-115 -299 -163 -425 -172 -443 -4 -11 -65 -166 -134
-345 -69 -179 -135 -344 -145 -368 -26 -54 -82 -116 -119 -132 -18 -7 -29 -19
-28 -30 1 -16 17 -17 194 -18 185 -1 193 0 193 18 0 14 -7 20 -22 21 -107 3
-160 51 -151 137 5 55 25 117 82 263 l41 105 244 0 c134 -1 246 -3 249 -6 5
-5 47 -115 108 -283 56 -154 52 -190 -23 -202 -66 -10 -78 -15 -78 -33 0 -15
22 -17 240 -17 218 0 240 2 240 17 0 10 -13 21 -35 28 -56 19 -88 67 -150 227
-31 81 -63 162 -70 178 -11 26 -107 273 -333 860 -66 172 -73 173 -131 23z
m107 -455 l110 -293 -97 0 c-240 -2 -354 0 -358 3 -2 2 47 137 109 300 62 162
116 292 120 289 3 -4 56 -139 116 -299z"/>
<path d="M604 3448 l1 -72 768 -1 767 0 0 72 0 72 -769 0 -769 0 2 -71z"/>
<path d="M865 2952 c-3 -3 -5 -13 -5 -22 0 -13 12 -19 49 -23 94 -11 112 -42
114 -185 1 -101 -14 -1005 -17 -1042 -8 -96 -41 -125 -143 -129 -16 -1 -23 -7
-23 -21 0 -20 7 -20 273 -20 149 -1 340 -3 422 -6 83 -3 198 -6 256 -8 l105
-3 0 204 -1 204 -25 -3 c-22 -3 -26 -10 -37 -77 -37 -221 -103 -273 -348 -275
-144 -2 -233 9 -256 30 -28 26 -35 81 -32 279 1 105 2 227 2 273 l1 83 88 -2
c98 -3 136 -12 170 -43 42 -37 61 -92 66 -181 2 -39 12 -54 34 -49 16 5 17 27
17 290 0 156 -2 284 -5 285 -3 0 -12 2 -21 4 -13 2 -19 -12 -28 -64 -15 -81
-46 -147 -84 -175 -25 -18 -43 -21 -130 -21 l-102 0 0 190 c0 253 8 385 26
413 23 36 78 45 255 40 141 -4 168 -8 207 -27 68 -33 98 -93 113 -226 8 -63
14 -76 35 -73 17 3 19 15 23 148 3 80 8 161 10 181 l6 37 -223 0 c-210 0 -712
11 -763 17 -13 1 -26 0 -29 -3z"/>
</g>
</svg>
