<svg id="Calque_1" xmlns="http://www.w3.org/2000/svg" viewBox="0 0 60 77"><style>.st0{fill:#fff;stroke:#ac936d;stroke-width:2;stroke-linecap:round;stroke-miterlimit:10}.st1{fill:#ac936d}.st2,.st3{fill:none;stroke:#ac936d;stroke-width:2;stroke-linecap:round;stroke-miterlimit:10}.st3{stroke:#fff;stroke-width:4}</style><g id="Picto_4_"><path class="st0" d="M1 10.1h58V76H1z"/><path class="st0" d="M44.2 4.9h-7.9c0-2.2-1.8-3.9-3.9-3.9h-4.8c-2.2 0-3.9 1.8-3.9 3.9h-7.9c-2.2 0-3.9 1.8-3.9 3.9 0 2.2 1.8 3.9 3.9 3.9h28.4c2.2 0 3.9-1.8 3.9-3.9 0-2.1-1.8-3.9-3.9-3.9z"/><circle class="st1" cx="30" cy="5.4" r="1.8"/><path class="st0" d="M7.3 21.3h10.5v10.5H7.3zM7.3 39.9h10.5v10.5H7.3zM7.3 58.4h10.5v10.5H7.3z"/><path class="st2" d="M24.7 23.7H52M24.7 28.6H52M24.7 42.6H52M24.7 47.5H52M24.7 60.5H52M24.7 65.4H52"/><path class="st3" d="M4.8 26.5l5.6 5.6 10.3-14.7"/><path class="st2" d="M4.8 26.5l5.6 5.6 10.3-14.7"/></g></svg>