<?xml version="1.0" encoding="utf-8"?>
<!-- Generator: Adobe Illustrator 19.0.0, SVG Export Plug-In . SVG Version: 6.00 Build 0)  -->
<svg version="1.1" id="Calque_1" xmlns="http://www.w3.org/2000/svg" xmlns:xlink="http://www.w3.org/1999/xlink" x="0px" y="0px"
	 viewBox="0 0 93.5 77" style="enable-background:new 0 0 93.5 77;" xml:space="preserve">
<style type="text/css">
	.st0{fill:#FFFFFF;stroke:#AC936D;stroke-width:2;stroke-linecap:round;stroke-miterlimit:10;}
	.st1{fill:#AC936D;}
</style>
<g id="Picto_1_">
	<polyline class="st0" points="28.8,38 57.4,18.2 65.5,25 89.9,3.5 	"/>
	<rect x="1" y="7.2" class="st0" width="47.8" height="61.7"/>
	<line class="st0" x1="19.7" y1="14.2" x2="42.5" y2="14.2"/>
	<line class="st0" x1="19.7" y1="19.6" x2="42.5" y2="19.6"/>
	<line class="st0" x1="19.7" y1="25" x2="42.5" y2="25"/>
	<line class="st0" x1="19.7" y1="30.4" x2="42.5" y2="30.4"/>
	<line class="st0" x1="19.7" y1="35.8" x2="42.5" y2="35.8"/>
	<line class="st0" x1="19.7" y1="46.7" x2="42.5" y2="46.7"/>
	<line class="st0" x1="19.7" y1="41.3" x2="42.5" y2="41.3"/>
	<line class="st0" x1="19.7" y1="52.1" x2="42.5" y2="52.1"/>
	<line class="st0" x1="19.7" y1="57.5" x2="42.5" y2="57.5"/>
	<line class="st0" x1="19.7" y1="62.9" x2="42.5" y2="62.9"/>
	<rect x="6.3" y="14.2" class="st0" width="9.8" height="9.8"/>
	<rect x="33.5" y="40.1" class="st0" width="27.8" height="35.9"/>
	<rect x="37.2" y="44.3" class="st0" width="20.4" height="6.3"/>
	<g>
		<rect x="36.9" y="53.5" class="st1" width="3.2" height="3.2"/>
		<rect x="41.4" y="53.5" class="st1" width="3.2" height="3.2"/>
		<rect x="46" y="53.5" class="st1" width="3.2" height="3.2"/>
		<rect x="50.5" y="53.5" class="st1" width="3.2" height="3.2"/>
		<rect x="55" y="53.5" class="st1" width="3.2" height="3.2"/>
	</g>
	<g>
		<rect x="36.9" y="58.5" class="st1" width="3.2" height="3.2"/>
		<rect x="41.4" y="58.5" class="st1" width="3.2" height="3.2"/>
		<rect x="46" y="58.5" class="st1" width="3.2" height="3.2"/>
		<rect x="50.5" y="58.5" class="st1" width="3.2" height="3.2"/>
		<rect x="55" y="58.5" class="st1" width="3.2" height="3.2"/>
	</g>
	<g>
		<rect x="36.9" y="63.8" class="st1" width="3.2" height="3.2"/>
		<rect x="41.4" y="63.8" class="st1" width="3.2" height="3.2"/>
		<rect x="46" y="63.8" class="st1" width="3.2" height="3.2"/>
		<rect x="50.5" y="63.8" class="st1" width="3.2" height="3.2"/>
		<rect x="55" y="63.8" class="st1" width="3.2" height="3.2"/>
	</g>
	<g>
		<rect x="36.9" y="69.1" class="st1" width="3.2" height="3.2"/>
		<rect x="41.4" y="69.1" class="st1" width="3.2" height="3.2"/>
		<rect x="46" y="69.1" class="st1" width="3.2" height="3.2"/>
		<rect x="50.5" y="69.1" class="st1" width="3.2" height="3.2"/>
		<rect x="55" y="69.1" class="st1" width="3.2" height="3.2"/>
	</g>
	<circle class="st0" cx="89.9" cy="3.5" r="2.5"/>
	<circle class="st0" cx="65.7" cy="25" r="2.5"/>
	<circle class="st0" cx="57.6" cy="19.1" r="2.5"/>
</g>
</svg>
