<?xml version="1.0" encoding="utf-8"?>
<!-- Generator: Adobe Illustrator 19.0.0, SVG Export Plug-In . SVG Version: 6.00 Build 0)  -->
<svg version="1.1" id="Calque_1" xmlns="http://www.w3.org/2000/svg" xmlns:xlink="http://www.w3.org/1999/xlink" x="0px" y="0px"
	 viewBox="0 0 60 77" style="enable-background:new 0 0 60 77;" xml:space="preserve">
<style type="text/css">
	.st0{fill:#FFFFFF;stroke:#AC936D;stroke-width:2;stroke-linecap:round;stroke-miterlimit:10;}
	.st1{fill:#AC936D;}
	.st2{fill:none;stroke:#AC936D;stroke-width:2;stroke-linecap:round;stroke-miterlimit:10;}
	.st3{fill:none;stroke:#FFFFFF;stroke-width:4;stroke-linecap:round;stroke-miterlimit:10;}
</style>
<g id="Picto_4_">
	<g>
		<rect x="1" y="10.1" class="st0" width="58" height="65.9"/>
		<path class="st0" d="M44.2,4.9h-7.9c0-2.2-1.8-3.9-3.9-3.9h-4.8c-2.2,0-3.9,1.8-3.9,3.9h-7.9c-2.2,0-3.9,1.8-3.9,3.9
			c0,2.2,1.8,3.9,3.9,3.9h28.4c2.2,0,3.9-1.8,3.9-3.9C48.1,6.7,46.3,4.9,44.2,4.9z"/>
		<circle class="st1" cx="30" cy="5.4" r="1.8"/>
		<rect x="7.3" y="21.3" class="st0" width="10.5" height="10.5"/>
		<rect x="7.3" y="39.9" class="st0" width="10.5" height="10.5"/>
		<rect x="7.3" y="58.4" class="st0" width="10.5" height="10.5"/>
		<line class="st2" x1="24.7" y1="23.7" x2="52" y2="23.7"/>
		<line class="st2" x1="24.7" y1="28.6" x2="52" y2="28.6"/>
		<line class="st2" x1="24.7" y1="42.6" x2="52" y2="42.6"/>
		<line class="st2" x1="24.7" y1="47.5" x2="52" y2="47.5"/>
		<line class="st2" x1="24.7" y1="60.5" x2="52" y2="60.5"/>
		<line class="st2" x1="24.7" y1="65.4" x2="52" y2="65.4"/>
	</g>
	<polyline class="st3" points="4.8,26.5 10.4,32.1 20.7,17.4 	"/>
	<polyline class="st2" points="4.8,26.5 10.4,32.1 20.7,17.4 	"/>
</g>
</svg>
