<svg id="Calque_1" xmlns="http://www.w3.org/2000/svg" viewBox="0 0 93.5 77"><style>.st0{fill:#fff;stroke:#ac936d;stroke-width:2;stroke-linecap:round;stroke-miterlimit:10}.st1{fill:#ac936d}</style><g id="Picto_1_"><path class="st0" d="M28.8 38l28.6-19.8 8.1 6.8L89.9 3.5"/><path class="st0" d="M1 7.2h47.8v61.7H1zM19.7 14.2h22.8M19.7 19.6h22.8M19.7 25h22.8M19.7 30.4h22.8M19.7 35.8h22.8M19.7 46.7h22.8M19.7 41.3h22.8M19.7 52.1h22.8M19.7 57.5h22.8M19.7 62.9h22.8"/><path class="st0" d="M6.3 14.2h9.8V24H6.3zM33.5 40.1h27.8V76H33.5z"/><path class="st0" d="M37.2 44.3h20.4v6.3H37.2z"/><path class="st1" d="M36.9 53.5h3.2v3.2h-3.2zM41.4 53.5h3.2v3.2h-3.2zM46 53.5h3.2v3.2H46zM50.5 53.5h3.2v3.2h-3.2zM55 53.5h3.2v3.2H55zM36.9 58.5h3.2v3.2h-3.2zM41.4 58.5h3.2v3.2h-3.2zM46 58.5h3.2v3.2H46zM50.5 58.5h3.2v3.2h-3.2zM55 58.5h3.2v3.2H55z"/><g><path class="st1" d="M36.9 63.8h3.2V67h-3.2zM41.4 63.8h3.2V67h-3.2zM46 63.8h3.2V67H46zM50.5 63.8h3.2V67h-3.2zM55 63.8h3.2V67H55z"/></g><g><path class="st1" d="M36.9 69.1h3.2v3.2h-3.2zM41.4 69.1h3.2v3.2h-3.2zM46 69.1h3.2v3.2H46zM50.5 69.1h3.2v3.2h-3.2zM55 69.1h3.2v3.2H55z"/></g><circle class="st0" cx="89.9" cy="3.5" r="2.5"/><circle class="st0" cx="65.7" cy="25" r="2.5"/><circle class="st0" cx="57.6" cy="19.1" r="2.5"/></g></svg>