<?xml version="1.0" encoding="utf-8"?>
<!-- Generator: Adobe Illustrator 19.0.0, SVG Export Plug-In . SVG Version: 6.00 Build 0)  -->
<svg version="1.1" id="Calque_1" xmlns="http://www.w3.org/2000/svg" xmlns:xlink="http://www.w3.org/1999/xlink" x="0px" y="0px"
	 viewBox="0 0 53 41.2" style="enable-background:new 0 0 53 41.2;" xml:space="preserve">
<style type="text/css">
	.st0{fill:none;stroke:#B0976C;stroke-width:1.0272;stroke-miterlimit:10;}
</style>
<g>
	<g id="XMLID_36_">
		<g id="XMLID_37_">
			<path id="XMLID_38_" class="st0" d="M23.4,31.5c0,2.4-1,4.6-2.9,6.4c-2,1.8-4.3,2.7-6.9,2.7c-4.2,0-7.4-1.4-9.7-4.2
				C1.6,33.7,0.5,29.9,0.5,25c0-4.6,1.9-9.2,5.8-13.8c3.9-4.6,8.5-8.1,14-10.5l2.5,4c-4.3,2.1-7.7,4.5-10.1,7.3
				c-2.4,2.8-3.9,6.1-4.2,10.1h3.2c2.4,0,4.3,0.3,5.8,0.8c1.5,0.5,2.7,1.3,3.6,2.2c0.9,0.9,1.5,1.9,1.9,3
				C23.2,29.2,23.4,30.4,23.4,31.5z"/>
		</g>
	</g>
</g>
<g>
	<g id="XMLID_31_">
		<g id="XMLID_32_">
			<path id="XMLID_33_" class="st0" d="M52.5,31.5c0,2.4-1,4.6-2.9,6.4c-2,1.8-4.3,2.7-6.9,2.7c-4.2,0-7.4-1.4-9.7-4.2
				c-2.2-2.8-3.4-6.6-3.4-11.5c0-4.6,1.9-9.2,5.8-13.8c3.9-4.6,8.5-8.1,14-10.5l2.5,4c-4.3,2.1-7.7,4.5-10.1,7.3
				c-2.4,2.8-3.9,6.1-4.2,10.1h3.2c2.4,0,4.3,0.3,5.8,0.8c1.5,0.5,2.7,1.3,3.6,2.2c0.9,0.9,1.5,1.9,1.9,3
				C52.3,29.2,52.5,30.4,52.5,31.5z"/>
		</g>
	</g>
</g>
</svg>
