<svg id="Calque_1" xmlns="http://www.w3.org/2000/svg" viewBox="0 0 53 41.2"><style>.st0{fill:none;stroke:#b0976c;stroke-width:1.0272;stroke-miterlimit:10}</style><g id="XMLID_36_"><g id="XMLID_37_"><path id="XMLID_38_" class="st0" d="M23.4 31.5c0 2.4-1 4.6-2.9 6.4-2 1.8-4.3 2.7-6.9 2.7-4.2 0-7.4-1.4-9.7-4.2C1.6 33.7.5 29.9.5 25c0-4.6 1.9-9.2 5.8-13.8 3.9-4.6 8.5-8.1 14-10.5l2.5 4c-4.3 2.1-7.7 4.5-10.1 7.3-2.4 2.8-3.9 6.1-4.2 10.1h3.2c2.4 0 4.3.3 5.8.8s2.7 1.3 3.6 2.2c.9.9 1.5 1.9 1.9 3 .2 1.1.4 2.3.4 3.4z"/></g></g><g id="XMLID_31_"><g id="XMLID_32_"><path id="XMLID_33_" class="st0" d="M52.5 31.5c0 2.4-1 4.6-2.9 6.4-2 1.8-4.3 2.7-6.9 2.7-4.2 0-7.4-1.4-9.7-4.2-2.2-2.8-3.4-6.6-3.4-11.5 0-4.6 1.9-9.2 5.8-13.8C39.3 6.5 43.9 3 49.4.6l2.5 4c-4.3 2.1-7.7 4.5-10.1 7.3-2.4 2.8-3.9 6.1-4.2 10.1h3.2c2.4 0 4.3.3 5.8.8s2.7 1.3 3.6 2.2c.9.9 1.5 1.9 1.9 3 .2 1.2.4 2.4.4 3.5z"/></g></g></svg>