<?xml version="1.0" encoding="utf-8"?>
<!-- Generator: Adobe Illustrator 19.0.0, SVG Export Plug-In . SVG Version: 6.00 Build 0)  -->
<svg version="1.1" id="Calque_1" xmlns="http://www.w3.org/2000/svg" xmlns:xlink="http://www.w3.org/1999/xlink" x="0px" y="0px"
	 viewBox="0 0 15.1 24.5" style="enable-background:new 0 0 15.1 24.5;" xml:space="preserve">
<style type="text/css">
	.st0{fill:none;stroke:#B0976C;stroke-miterlimit:10;}
	.st1{fill:none;stroke:#B0976C;stroke-width:0.75;stroke-miterlimit:10;}
	.st2{fill:#B0976C;}
</style>
<g id="Phone_2_">
	<path class="st0" d="M14.3,24H0.8c-0.2,0-0.3-0.1-0.3-0.3V0.8c0-0.2,0.1-0.3,0.3-0.3h13.5c0.2,0,0.3,0.1,0.3,0.3v22.9
		C14.6,23.8,14.4,24,14.3,24z"/>
	<path class="st1" d="M11.9,18.6H3.2c-0.2,0-0.3-0.1-0.3-0.3V2.9c0-0.2,0.1-0.3,0.3-0.3h8.8c0.2,0,0.3,0.1,0.3,0.3v15.4
		C12.2,18.5,12.1,18.6,11.9,18.6z"/>
	<circle class="st2" cx="7.5" cy="21.3" r="0.8"/>
</g>
</svg>
