<svg id="Calque_1" xmlns="http://www.w3.org/2000/svg" viewBox="0 0 273.5 60.9"><style>.st0{fill:#FFFFFF;}</style><g id="XMLID_178_"><path id="XMLID_201_" class="st0" d="M16.5 26.8h.8c2.3 0 4.2-.4 5.5-1.3 1.3-.9 2.2-2.1 2.7-3.6s.8-3.3.8-5.4c0-3.4-.6-6-1.8-7.8-1.2-1.8-3.2-2.6-6-2.6-1.1 0-2 .1-2.5.4-.5.2-.9.7-1 1.5-.2.7-.3 1.9-.3 3.4v31c0 1.6.1 2.7.3 3.4.2.7.7 1.2 1.3 1.5.6.3 1.7.4 3.1.5v1.3c-2.2-.1-5.4-.2-9.5-.2-4.5 0-7.8.1-9.9.2v-1.3c1.4-.1 2.4-.2 3-.5.6-.3 1.1-.8 1.3-1.5.2-.7.4-1.9.4-3.4v-31c0-1.6-.1-2.7-.4-3.4-.2-.8-.6-1.3-1.3-1.5-.6-.3-1.6-.5-3-.5V4.7c2.1.1 5.3.2 9.5.2 1.7 0 3.5 0 5.6-.1 2 0 3.5-.1 4.3-.1 5.8 0 10.1.9 13 2.8 2.9 1.9 4.4 4.6 4.4 8.1 0 1.9-.4 3.6-1.3 5.3-.9 1.7-2.4 3.1-4.5 4.4-2.1 1.2-4.9 2.1-8.3 2.5h.1c2.5.2 4.6.7 6.2 1.3 1.6.6 2.9 1.5 3.8 2.6.9 1.1 1.6 2.6 1.9 4.3l1.4 6.5c.3 1.7.7 2.9 1.2 3.5.4.7 1.1 1 1.9 1 .5 0 .9-.1 1.3-.4.4-.2.8-.6 1.2-1.1l.9.8c-1.1 1.3-2.4 2.2-3.7 2.8-1.4.6-2.9.9-4.7.9-2.4 0-4.3-.5-5.7-1.5-1.4-1-2.3-2.8-2.8-5.3L24.6 37c-.4-2-.8-3.6-1.1-4.9-.4-1.2-1-2.2-1.7-2.9-.7-.7-1.7-1.1-3-1.1h-2.2l-.1-1.3z"/><path id="XMLID_198_" class="st0" d="M53 32.7c0 2.8.4 5.1 1.2 6.9.8 1.8 1.8 3.2 3 4 1.2.8 2.6 1.3 4 1.3 3.4 0 6.2-1.7 8.3-5l1.1.4c-.5 1.7-1.4 3.3-2.5 4.8s-2.5 2.7-4.2 3.6c-1.7.8-3.7 1.3-5.9 1.3-2.9 0-5.4-.6-7.6-1.8-2.2-1.2-3.9-3.1-5.1-5.6-1.2-2.5-1.8-5.6-1.8-9.3 0-3.8.7-7 2-9.6 1.3-2.6 3.1-4.6 5.4-5.9 2.3-1.3 5-2 8-2 7.9 0 11.8 4.6 11.8 13.9H53.1c-.1.6-.1 1.6-.1 3zm8.8-12.3c-.7-2.2-1.8-3.2-3.3-3.2-1.5 0-2.7.9-3.7 2.8-1 1.8-1.6 4.7-1.8 8.6h9.8c.1-3.3-.3-6.1-1-8.2z"/><path id="XMLID_196_" class="st0" d="M79.9 45.5c1.4 2 3.3 3.1 5.8 3.1 1.2 0 2.3-.4 3.1-1.1.9-.7 1.3-1.9 1.3-3.4 0-1.2-.3-2.2-.8-3.1-.5-.9-1.2-1.7-2-2.4s-2-1.7-3.6-2.9c-1.9-1.6-3.4-2.8-4.4-3.7-1-.9-1.8-2-2.5-3.2-.7-1.2-1-2.6-1-4.2 0-1.8.5-3.3 1.5-4.7 1-1.3 2.3-2.3 3.9-3 1.7-.7 3.4-1 5.4-1 1.6 0 3.1.2 4.4.6 1.3.4 2.4.8 3.1 1.3.4.3.8.4 1.1.4.8 0 1.3-.8 1.5-2.3h1.4c-.2 2.1-.2 5.8-.2 11h-1.4c-.4-2.7-1.2-5-2.5-6.9-1.3-1.9-3.1-2.8-5.6-2.8-1.2 0-2.3.4-3.1 1.1-.8.7-1.2 1.7-1.2 2.9 0 1.4.5 2.6 1.4 3.6.9 1 2.1 2 3.4 2.9 1.3.9 2.3 1.6 2.9 2.1 1.7 1.3 3.1 2.4 4.1 3.4 1 1 1.8 2 2.5 3.3.6 1.2.9 2.6.9 4.2 0 1.8-.5 3.5-1.6 4.9-1.1 1.4-2.5 2.5-4.3 3.3-1.8.8-3.8 1.1-6 1.1s-4.2-.4-5.8-1.3c-1.2-.6-2.2-1.1-2.9-1.3-.1 0-.2-.1-.3-.1-.7 0-1.2.7-1.5 2.2h-1.4c.2-2.4.2-6.6.2-12.5h1.4c.6 3.6 1.4 6.4 2.8 8.5z"/><path id="XMLID_194_" class="st0" d="M116.5 46c.3.7.7 1.1 1.3 1.4.6.3 1.4.4 2.4.4v1.3c-4.3-.2-7.1-.2-8.4-.2-1.4 0-4.3.1-8.7.2v-1.3c1 0 1.8-.1 2.4-.4.6-.3 1-.7 1.3-1.4.3-.7.4-1.6.4-2.7V7.5c0-1.9-.3-3.3-.9-4.2-.8-.8-1.8-1.3-3.3-1.3V.7c1.3.1 2.6.2 3.9.2 3.7 0 6.7-.3 9.2-.9v43.3c0 1.1.1 2.1.4 2.7z"/><path id="XMLID_191_" class="st0" d="M136.2 46c.3.7.7 1.1 1.3 1.4.6.3 1.4.4 2.4.4v1.3c-4.2-.2-6.9-.2-8.3-.2-1.3 0-4.2.1-8.7.2v-1.3c1 0 1.8-.1 2.4-.4.6-.3 1-.7 1.3-1.4.3-.7.4-1.6.4-2.7V23.5c0-1.9-.3-3.3-.9-4.2-.6-.9-1.6-1.3-3.1-1.3v-1.3c1.3.1 2.6.2 3.9.2 3.7 0 6.7-.3 9.2-.9v27.3c-.3 1.1-.2 2.1.1 2.7zm-1.1-44.2c1 .9 1.5 2 1.5 3.5s-.5 2.7-1.5 3.6c-1 .9-2.4 1.3-4.1 1.3-1.8 0-3.2-.4-4.2-1.3s-1.5-2-1.5-3.6c0-1.5.5-2.7 1.5-3.5 1-.9 2.4-1.3 4.2-1.3 1.7 0 3 .4 4.1 1.3z"/><path id="XMLID_189_" class="st0" d="M165.8 15.8c1.7 0 3.1.2 4.2.6 1.1.4 2 1 2.7 1.8.7.8 1.2 1.8 1.5 3.1.3 1.3.5 3 .5 5.1v16.9c0 1.2.1 2.1.4 2.7.3.7.7 1.1 1.3 1.4.6.3 1.4.4 2.4.4v1.3c-4.2-.2-6.9-.2-8.3-.2-1.3 0-4 .1-8.2.2v-1.3c.9 0 1.5-.1 2-.4.5-.3.8-.7 1.1-1.4.2-.7.3-1.6.3-2.7V23.8c0-1.7-.3-3-.8-3.9-.6-.9-1.6-1.3-3-1.3-1.1 0-2.2.3-3.1.9-.9.6-1.7 1.5-2.2 2.6-.6 1.1-.8 2.3-.8 3.7v17.4c0 1.2.1 2.1.3 2.7.2.7.6 1.1 1.1 1.4.5.3 1.2.4 2 .4V49c-3.8-.2-6.4-.2-7.8-.2-1.3 0-4.2.1-8.7.2v-1.3c1 0 1.8-.1 2.4-.4.6-.3 1-.7 1.3-1.4.3-.7.4-1.6.4-2.7V23.5c0-1.9-.3-3.3-.9-4.2-.6-.9-1.6-1.3-3.1-1.3v-1.3c1.3.1 2.6.2 3.9.2 3.7 0 6.7-.3 9.2-.9v5.6c1.6-3.8 5-5.8 9.9-5.8z"/><path id="XMLID_184_" class="st0" d="M189.4 36.1c-.5.3-.9.6-1.2.9-.6.6-.9 1.2-.9 2 0 1.4.8 2.1 2.5 2.1h14.5c2.5 0 4.5.5 6.1 1.6 1.6 1.1 2.3 2.8 2.3 5.1 0 2.1-.7 4.2-2 6.2s-3.4 3.7-6.1 4.9c-2.7 1.3-6.1 1.9-10 1.9-3.1 0-5.6-.2-7.7-.7-2.1-.5-3.6-1.1-4.6-1.9-1-.8-1.5-1.7-1.5-2.8 0-1.1.4-2 1.3-2.5.8-.6 2.2-1.1 4.1-1.7 1.9-.6 3.3-1.2 4.1-1.8h-1.5c-1.7 0-3.3-.4-4.8-1.3-1.5-.8-2.2-2.4-2.2-4.6 0-1.2.2-2.3.7-3.3.5-1 1.3-1.9 2.5-2.8.9-.7 1.9-1.3 3.2-2 0 0 .1.2.5.3.3.3.7.4.7.4zm.3-1.3c-2.1-.7-3.8-1.9-5-3.4-1.2-1.5-1.8-3.4-1.8-5.7 0-3.3 1.2-5.8 3.7-7.5 2.5-1.7 5.7-2.5 9.8-2.5 1.7 0 3.2.1 4.7.4-.1-1.1 0-2.1.2-3.2.2-1.7.8-3.1 1.8-4.2s2.4-1.6 4.2-1.6c1.3 0 2.4.4 3.3 1.1.9.7 1.3 1.6 1.3 2.8 0 1.1-.4 1.9-1.2 2.6-.8.7-1.9 1-3.1 1-1.3 0-2.3-.3-3-.9-.7-.6-1.3-1.5-1.7-2.6-.4.8-.8 1.8-.9 3.2v1.9c2.5.6 4.4 1.7 5.8 3.3 1.4 1.6 2.1 3.6 2.1 6 0 2.2-.6 4.1-1.7 5.6-1.2 1.5-2.7 2.6-4.8 3.3-2 .7-4.3 1.1-7 1.1-2 0-3.8-.2-5.4-.6l-1.3-.1zm.1 17c-.4 1-.6 1.8-.6 2.6 0 1.7.7 3.1 2 4 1.3.9 3 1.4 5.1 1.4 1.7 0 3.3-.3 4.7-.9 1.5-.6 2.6-1.5 3.5-2.7.9-1.2 1.3-2.6 1.3-4.1 0-.9-.3-1.6-.8-2-.5-.4-1.5-.6-2.8-.6h-10.7c-.8.6-1.3 1.4-1.7 2.3zm3.4-32.9c-.7 1.3-1.1 3.6-1.1 6.8s.4 5.5 1.1 6.8c.7 1.3 1.8 2 3.1 2 1.4 0 2.4-.7 3.1-2 .7-1.3 1.1-3.6 1.1-6.8s-.4-5.5-1.1-6.8c-.7-1.3-1.8-2-3.1-2-1.4 0-2.4.7-3.1 2z"/><path id="XMLID_181_" class="st0" d="M225.3 32.7c0 2.8.4 5.1 1.2 6.9.8 1.8 1.8 3.2 3 4 1.2.8 2.6 1.3 4 1.3 3.4 0 6.2-1.7 8.3-5l1.1.4c-.5 1.7-1.4 3.3-2.5 4.8s-2.5 2.7-4.2 3.6c-1.7.9-3.6 1.4-5.8 1.4-2.9 0-5.4-.6-7.6-1.8-2.2-1.2-3.9-3.1-5.1-5.6-1.2-2.5-1.8-5.6-1.8-9.3 0-3.8.7-7 2-9.6 1.3-2.6 3.1-4.6 5.4-5.9 2.3-1.3 5-2 8-2 7.9 0 11.8 4.6 11.8 13.9h-17.6c-.2.5-.2 1.5-.2 2.9zm8.8-12.3c-.7-2.2-1.8-3.2-3.3-3.2-1.5 0-2.7.9-3.7 2.8-1 1.8-1.6 4.7-1.8 8.6h9.8c.1-3.3-.3-6.1-1-8.2z"/><path id="XMLID_179_" class="st0" d="M262.7 17.5c1.5-1.1 3.2-1.7 5.1-1.7 1.3 0 2.3.3 3.2.8.9.6 1.5 1.3 1.9 2.1.4.9.6 1.8.6 2.8 0 1.6-.4 2.8-1.3 3.8s-2.1 1.5-3.6 1.5c-1.4 0-2.6-.4-3.4-1.1-.8-.7-1.2-1.7-1.2-2.9 0-2 .9-3.6 2.8-4.9-.3-.1-.5-.1-.8-.1-.3 0-.6.1-1 .2-1.1.2-2 .7-2.9 1.5-.9.8-1.6 1.9-2.1 3-.5 1.2-.8 2.3-.8 3.5v16.6c0 1.9.5 3.3 1.4 4 .9.7 2.4 1.1 4.5 1.1V49c-5.2-.2-8.6-.2-10-.2-1.3 0-4.3.1-9 .2v-1.3c1 0 1.8-.1 2.4-.4.6-.3 1-.7 1.3-1.4.3-.7.4-1.6.4-2.7V23.5c0-1.9-.3-3.3-.9-4.2-.6-.9-1.6-1.3-3.1-1.3v-1.3c1.3.1 2.6.2 3.9.2 3.7 0 6.7-.3 9.2-.9v5.8c.8-1.8 1.9-3.2 3.4-4.3z"/></g></svg>