<svg id="Calque_1" xmlns="http://www.w3.org/2000/svg" viewBox="0 0 42 80"><style>.st0{fill:#FFFFFF;}</style><g id="Glyphe"><path class="st0" d="M.8 40.3h10.7v1H.8zM10.7 36.3v.3H7.4v-.3c.4 0 .6-.1.8-.1.2-.1.2-.2.2-.4s-.1-.4-.2-.7l-.9-2.3H3.9l-.6 1.5c-.2.5-.3.9-.3 1.2 0 .3.1.5.3.6.2.1.5.2.9.2v.3H1.5v-.3c.5-.1.8-.5 1.1-1.2L6 26.4h.2l3.5 9c.3.6.6.9 1 .9zm-5.1-8.1L4 32.5h3.2l-1.6-4.3zM9.8 52.6c0 .5 0 1.1.1 1.8-.6 0-1.7-.1-3.3-.1H2.5V54c.3 0 .6 0 .7-.1.2-.1.3-.2.3-.3.1-.2.1-.4.1-.8l.1-7.1c0-.4 0-.6-.1-.8-.1-.2-.2-.3-.3-.3-.2-.1-.4-.1-.7-.1v-.3c.9 0 2.3.1 4.1.1h3c-.1.7-.1 1.2-.1 1.7v.9h-.3c-.1-.6-.1-1.1-.2-1.4-.1-.3-.3-.5-.5-.7-.2-.1-.6-.2-1.1-.2H6.3c-.3 0-.6 0-.7.1-.2.1-.3.2-.3.3-.1.2-.1.4-.1.8L5 49.2h.9c.5 0 .8-.1 1-.4.2-.3.3-.6.3-.9 0-.3.1-.5.1-.6h.3c0 .5-.1.9-.1 1.3v.7c0 .5 0 1.2.1 2h-.3c0-.1 0-.3-.1-.7 0-.4-.2-.7-.4-.9-.2-.2-.5-.3-.9-.3H5l-.1 3.4c0 .4 0 .6.1.8.1.2.2.3.3.3s.4.1.7.1h1c.6 0 1-.1 1.4-.2.3-.2.5-.4.7-.7.1-.3.3-.9.3-1.5h.3c.1.2.1.6.1 1z"/><g><path class="st0" d="M25.2 40.1h.5c1.5 0 2.6-.3 3.4-.8.8-.6 1.4-1.3 1.7-2.2.3-.9.5-2.1.5-3.4 0-2.1-.4-3.7-1.1-4.8-.8-1.1-2-1.6-3.7-1.6-.7 0-1.2.1-1.5.3-.3.2-.6.5-.7 1-.1.5-.2 1.2-.2 2.1V49.9c0 1 .1 1.7.2 2.1.1.4.4.7.8.9.4.2 1 .3 1.9.3v.8c-1.4-.1-3.3-.1-5.8-.1-2.8 0-4.8 0-6.1.1v-.8c.9 0 1.5-.1 1.9-.3.4-.2.7-.5.8-.9.1-.4.2-1.1.2-2.1V30.6c0-1-.1-1.7-.2-2.1-.1-.4-.4-.7-.8-.9-.4-.2-1-.3-1.9-.3v-.8c1.3.1 3.3.1 5.9.1h6c3.6 0 6.2.6 8 1.8 1.8 1.2 2.7 2.8 2.7 5 0 1.1-.3 2.2-.8 3.3-.5 1-1.5 1.9-2.8 2.7-1.3.8-3 1.3-5.1 1.5 1.6.1 2.8.4 3.9.8 1 .4 1.8.9 2.4 1.6.6.7 1 1.6 1.2 2.7l.9 4c.2 1 .5 1.8.7 2.2.3.4.7.6 1.1.6.3 0 .6-.1.8-.2.2-.1.5-.4.8-.7l.5.5c-.7.8-1.5 1.4-2.3 1.7-.8.4-1.8.5-2.9.5-1.5 0-2.7-.3-3.5-.9-.9-.6-1.4-1.7-1.7-3.3l-.7-3.9c-.2-1.2-.5-2.3-.7-3-.2-.8-.6-1.4-1.1-1.8-.5-.4-1.1-.7-1.8-.7h-1.4v-.9z"/></g><g><path class="st0" d="M21.2 1h1v11h-1zM21.2 68h1v11h-1z"/></g></g></svg>